<?xml version="1.0" encoding="utf-8"?>
<!-- Generator: Adobe Illustrator 21.1.0, SVG Export Plug-In . SVG Version: 6.00 Build 0)  -->
<svg version="1.1"
	 id="Layer_1" xmlns:cc="http://creativecommons.org/ns#" xmlns:dc="http://purl.org/dc/elements/1.1/" xmlns:rdf="http://www.w3.org/1999/02/22-rdf-syntax-ns#"
	 xmlns="http://www.w3.org/2000/svg" xmlns:xlink="http://www.w3.org/1999/xlink" x="0px" y="0px" viewBox="0 0 24 24"
	 style="enable-background:new 0 0 24 24;" xml:space="preserve">
<style type="text/css">
	.st0{fill:#D3D1D3;}
	.st1{fill:#B0ACB0;}
	.st2{fill:#E9E9EA;}
	.st3{fill:#989498;}
</style>
<path class="st0" d="M12,4L7,4.8v11.5l5-0.8V4z"/>
<path class="st1" d="M7,18.3l-5,1.3v3.5L7,24V18.3z"/>
<path class="st2" d="M2,4v13l5-1.3V4.8L2,4z"/>
<path class="st3" d="M12,16.5l-5,2.6V24l5-0.9V16.5z"/>
<path class="st1" d="M12,13.4l-5,2.3v3.4l5-2L12,13.4z"/>
<path class="st1" d="M8.9,4.5l2.5,9.2l0.5-0.2V4L8.9,4.5z"/>
<path class="st2" d="M12.1,4l2.4,10.8H17v-10L12.1,4z"/>
<path class="st0" d="M12,4v10.3l2.5-0.3L12,4L12,4z"/>
<path class="st0" d="M17,12.9l-5,0.7v4.2l5-0.5L17,12.9z"/>
<path class="st0" d="M17,4.8V13l5-1.4V4L17,4.8z"/>
<path class="st3" d="M22,14l-5,2.4V24l5-0.9V14z"/>
<path class="st1" d="M17,16.4l-5,0.7l0,6l5,0.9V16.4z"/>
<path class="st0" d="M7,15.7l-5,0.8v3.3l5-0.7V15.7z"/>
<path class="st1" d="M22,10.6L17,13v3.4l5-1.6V10.6z"/>
<path class="st3" d="M8.4,7.4C8.8,7,9,6.5,9,6c0-0.6-0.2-1.1-0.6-1.5C8,4.2,7.5,4,7,4S6,4.2,5.6,4.5C5.2,4.9,5,5.4,5,6
	c0,0.5,0.2,1,0.6,1.4S6.4,8,7,8S8,7.8,8.4,7.4 M11,6c0,0.5-0.1,1-0.3,1.4l-2.8,6c-0.1,0.2-0.2,0.3-0.4,0.4C7.4,13.9,7.2,14,7,14
	s-0.4-0.1-0.5-0.2c-0.2-0.1-0.3-0.2-0.4-0.4l-2.9-6C3.1,7,3,6.5,3,6c0-1.1,0.4-2.1,1.2-2.9C4.9,2.4,5.9,2,7,2c1.1,0,2,0.4,2.8,1.1
	C10.6,3.9,11,4.9,11,6"/>
</svg>
